<?xml version="1.0" standalone="no"?>
<!DOCTYPE svg PUBLIC "-//W3C//DTD SVG 20010904//EN"
 "http://www.w3.org/TR/2001/REC-SVG-20010904/DTD/svg10.dtd">
<svg version="1.0" xmlns="http://www.w3.org/2000/svg"
 width="1224.000000pt" height="1168.000000pt" viewBox="0 0 1224.000000 1168.000000"
 preserveAspectRatio="xMidYMid meet">

<g transform="translate(0.000000,1168.000000) scale(0.100000,-0.100000)"
fill="#000000" stroke="none">
<path d="M6419 10315 c-179 -36 -344 -122 -469 -244 -120 -118 -215 -306 -261
-519 -6 -26 -14 -146 -18 -267 -9 -251 -24 -324 -93 -461 -55 -112 -120 -177
-226 -226 -143 -68 -442 -118 -608 -102 -141 12 -360 -35 -493 -107 -216 -118
-352 -284 -436 -531 -37 -110 -46 -179 -55 -398 -5 -143 -14 -247 -24 -285
-97 -376 -285 -494 -840 -525 -192 -10 -310 -38 -453 -105 -147 -70 -267 -164
-329 -260 -10 -17 -27 -39 -36 -49 -41 -45 -110 -213 -139 -336 -19 -80 -17
-299 4 -387 23 -98 67 -214 83 -220 8 -3 12 -9 9 -13 -7 -12 28 -74 83 -145
68 -88 72 -91 84 -74 7 10 8 9 3 -7 -4 -17 8 -31 67 -76 122 -94 305 -168 475
-193 54 -8 159 -14 233 -13 168 1 257 -14 390 -65 153 -58 272 -175 310 -304
7 -24 17 -43 22 -43 5 0 7 -4 4 -8 -3 -5 4 -43 15 -85 25 -99 26 -107 44 -342
19 -260 42 -349 135 -533 25 -49 46 -79 52 -76 6 4 8 2 5 -3 -14 -23 153 -199
179 -189 8 3 13 2 10 -3 -3 -4 5 -17 17 -28 24 -22 137 -86 137 -77 0 2 10 -2
23 -10 64 -43 215 -76 362 -81 205 -7 395 41 538 136 32 21 61 39 63 39 3 0
33 24 66 53 132 114 228 299 274 527 20 101 15 287 -12 390 -40 157 -156 348
-271 447 -77 66 -124 97 -225 148 -176 87 -279 111 -533 120 -327 11 -474 54
-589 173 -78 80 -135 210 -156 357 -5 39 -16 115 -24 170 -68 467 5 813 204
980 118 99 212 121 580 140 157 8 305 17 330 20 325 42 546 198 675 479 65
141 76 202 85 506 8 244 12 286 34 373 46 179 132 296 271 368 129 68 215 88
529 124 239 28 319 43 436 81 193 64 372 224 469 421 277 557 -53 1221 -664
1338 -95 18 -254 18 -346 0z m-2514 -6885 c3 -5 1 -10 -4 -10 -6 0 -11 5 -11
10 0 6 2 10 4 10 3 0 8 -4 11 -10z"/>
<path d="M8331 8059 c-82 -16 -205 -84 -274 -152 -73 -72 -140 -194 -157 -286
-36 -193 22 -384 156 -517 176 -173 435 -214 663 -102 70 34 195 149 224 206
10 17 24 45 32 61 23 43 55 178 55 230 -1 256 -186 492 -435 556 -63 16 -192
18 -264 4z"/>
<path d="M6444 6235 c-164 -36 -304 -143 -382 -290 -47 -89 -55 -119 -60 -237
-4 -99 -1 -127 16 -185 30 -96 87 -186 161 -254 278 -255 725 -174 890 162 50
102 65 177 58 289 -13 200 -130 376 -310 465 -123 60 -248 77 -373 50z"/>
<path d="M10146 6234 c-103 -25 -184 -72 -266 -154 -122 -122 -176 -258 -168
-425 8 -160 80 -306 200 -406 112 -93 220 -132 368 -132 314 0 564 250 564
563 0 161 -56 294 -168 405 -137 135 -346 194 -530 149z"/>
<path d="M8330 4734 c-233 -40 -379 -111 -516 -251 -162 -164 -232 -328 -241
-568 -4 -120 -2 -152 16 -229 41 -170 140 -334 274 -450 182 -158 436 -232
675 -197 142 21 258 65 362 139 247 175 370 411 370 707 0 233 -80 433 -239
594 -159 161 -347 245 -576 255 -55 3 -111 3 -125 0z"/>
<path d="M6525 2533 c-95 -9 -252 -63 -239 -84 3 -5 -2 -6 -11 -3 -10 4 -41
-20 -98 -77 -93 -94 -133 -166 -161 -286 -20 -89 -20 -128 -1 -219 18 -86 24
-104 37 -104 5 0 7 -4 3 -10 -21 -34 172 -258 220 -254 8 1 13 -2 10 -6 -6 -9
56 -40 130 -65 94 -32 320 -16 371 26 6 5 14 6 17 2 4 -3 7 -1 7 5 0 7 7 12
16 12 43 0 193 140 235 220 53 100 61 132 66 252 5 99 2 126 -15 185 -58 188
-212 338 -397 386 -62 17 -138 24 -190 20z"/>
</g>
</svg>
